<?xml version="1.0" encoding="UTF-8" standalone="no"?>
<!DOCTYPE svg PUBLIC "-//W3C//DTD SVG 1.1//EN" "http://www.w3.org/Graphics/SVG/1.1/DTD/svg11.dtd">
<svg width="100%" height="100%" viewBox="0 0 87 86" version="1.1" xmlns="http://www.w3.org/2000/svg" xmlns:xlink="http://www.w3.org/1999/xlink" xml:space="preserve" xmlns:serif="http://www.serif.com/" style="fill-rule:evenodd;clip-rule:evenodd;stroke-linecap:round;stroke-miterlimit:10;">
    <g id="Artboard1" transform="matrix(0.87,0,0,0.86,0,0)">
        <rect x="0" y="0" width="100" height="100" style="fill:none;"/>
        <clipPath id="_clip1">
            <rect x="0" y="0" width="100" height="100"/>
        </clipPath>
        <g clip-path="url(#_clip1)">
            <g transform="matrix(0.868752,0,0,0.867621,-7.04357,-9.12343)">
                <g>
                    <path d="M108,88.75C108,97.719 100.812,105 91.958,105L38.042,105C29.188,105 22,97.719 22,88.75L22,56.25C22,47.281 29.188,40 38.042,40L53.092,40" style="fill:none;stroke:rgb(206,49,58);stroke-width:16.3px;"/>
                </g>
            </g>
            <g transform="matrix(1.51222,0.0764899,0.0756108,1.5298,-39.9917,-30.8646)">
                <g transform="matrix(0.761999,-0.0380999,-0.0380999,0.761999,25.5008,18.9006)">
                    <path d="M50.905,15.122L76.878,15.122L76.878,41.095" style="fill:none;stroke:rgb(206,49,58);stroke-width:12.24px;"/>
                    <path d="M45,47C45,47 66.131,25.869 76.878,15.122" style="fill:none;stroke:rgb(206,49,58);stroke-width:12.24px;"/>
                </g>
            </g>
        </g>
    </g>
</svg>
